<svg width="200" height="83" viewBox="0 0 200 83" fill="none" xmlns="http://www.w3.org/2000/svg">
<path d="M76.412 61.976C76.988 63.464 77.816 64.232 78.896 64.28V65C77.936 64.928 76.652 64.892 75.044 64.892C72.98 64.892 71.444 64.928 70.436 65V64.28C71.348 64.232 71.996 64.124 72.38 63.956C72.788 63.764 72.992 63.428 72.992 62.948C72.992 62.54 72.848 61.976 72.56 61.256L70.364 55.352H61.652L60.176 59.168C59.696 60.464 59.456 61.448 59.456 62.12C59.456 62.864 59.708 63.404 60.212 63.74C60.74 64.076 61.532 64.256 62.588 64.28V65C61.22 64.928 59.84 64.892 58.448 64.892C57.368 64.892 56.468 64.928 55.748 65V64.28C56.948 63.992 57.896 62.948 58.592 61.148L67.052 39.332H67.628L76.412 61.976ZM70.076 54.632L66.044 43.868L61.94 54.632H70.076ZM84.7238 61.652C84.7238 62.636 84.9278 63.32 85.3358 63.704C85.7438 64.064 86.4518 64.244 87.4598 64.244V65C85.2518 64.904 83.7998 64.856 83.1038 64.856C82.4078 64.856 80.9558 64.904 78.7478 65V64.244C79.7558 64.244 80.4638 64.064 80.8718 63.704C81.2798 63.32 81.4838 62.636 81.4838 61.652V41.096C81.4838 39.992 81.2798 39.188 80.8718 38.684C80.4638 38.18 79.7558 37.928 78.7478 37.928V37.172C79.4918 37.244 80.2358 37.28 80.9798 37.28C82.4918 37.28 83.7398 37.112 84.7238 36.776V61.652ZM92.6846 37.46C93.3086 37.46 93.8486 37.688 94.3046 38.144C94.7606 38.6 94.9886 39.14 94.9886 39.764C94.9886 40.388 94.7606 40.928 94.3046 41.384C93.8486 41.84 93.3086 42.068 92.6846 42.068C92.0606 42.068 91.5206 41.84 91.0646 41.384C90.6086 40.928 90.3806 40.388 90.3806 39.764C90.3806 39.14 90.6086 38.6 91.0646 38.144C91.5206 37.688 92.0606 37.46 92.6846 37.46ZM94.5566 61.652C94.5566 62.636 94.7606 63.32 95.1686 63.704C95.5766 64.064 96.2846 64.244 97.2926 64.244V65C95.0846 64.904 93.6326 64.856 92.9366 64.856C92.2406 64.856 90.7886 64.904 88.5806 65V64.244C89.5886 64.244 90.2966 64.064 90.7046 63.704C91.1126 63.32 91.3166 62.636 91.3166 61.652V50.384C91.3166 49.28 91.1126 48.476 90.7046 47.972C90.2966 47.468 89.5886 47.216 88.5806 47.216V46.46C89.3486 46.532 90.0926 46.568 90.8126 46.568C92.3246 46.568 93.5726 46.4 94.5566 46.064V61.652ZM110.503 45.956C112.183 45.956 113.455 46.412 114.319 47.324C114.775 47.804 115.099 48.404 115.291 49.124C115.483 49.844 115.579 50.816 115.579 52.04V61.652C115.579 62.636 115.783 63.32 116.191 63.704C116.599 64.064 117.307 64.244 118.315 64.244V65C116.107 64.904 114.667 64.856 113.995 64.856C113.323 64.856 111.979 64.904 109.963 65V64.244C110.851 64.244 111.463 64.064 111.799 63.704C112.159 63.32 112.339 62.636 112.339 61.652V51.248C112.339 49.904 112.147 48.884 111.763 48.188C111.379 47.468 110.599 47.108 109.423 47.108C108.439 47.108 107.563 47.396 106.795 47.972C106.027 48.548 105.427 49.34 104.995 50.348C104.587 51.332 104.383 52.436 104.383 53.66V61.652C104.383 62.636 104.551 63.32 104.887 63.704C105.247 64.064 105.871 64.244 106.759 64.244V65C104.743 64.904 103.399 64.856 102.727 64.856C102.055 64.856 100.615 64.904 98.4074 65V64.244C99.4154 64.244 100.123 64.064 100.531 63.704C100.939 63.32 101.143 62.636 101.143 61.652V50.384C101.143 49.28 100.939 48.476 100.531 47.972C100.123 47.468 99.4154 47.216 98.4074 47.216V46.46C99.1754 46.532 99.9194 46.568 100.639 46.568C102.151 46.568 103.399 46.4 104.383 46.064V50.312C104.983 48.776 105.811 47.672 106.867 47C107.947 46.304 109.159 45.956 110.503 45.956ZM123.992 65.252C122.48 65.252 121.352 64.88 120.608 64.136C119.888 63.368 119.528 62.312 119.528 60.968C119.528 59.888 119.816 59 120.392 58.304C120.992 57.608 121.688 57.056 122.48 56.648C123.296 56.24 124.364 55.808 125.684 55.352C127.028 54.896 128.024 54.476 128.672 54.092C129.32 53.708 129.644 53.192 129.644 52.544V50.312C129.644 48.92 129.344 47.972 128.744 47.468C128.168 46.94 127.352 46.676 126.296 46.676C124.616 46.676 123.428 47.108 122.732 47.972C123.212 48.092 123.608 48.344 123.92 48.728C124.256 49.112 124.424 49.592 124.424 50.168C124.424 50.768 124.232 51.248 123.848 51.608C123.464 51.944 122.972 52.112 122.372 52.112C121.7 52.112 121.196 51.908 120.86 51.5C120.524 51.068 120.356 50.552 120.356 49.952C120.356 49.376 120.488 48.896 120.752 48.512C121.04 48.128 121.46 47.744 122.012 47.36C122.588 46.952 123.32 46.616 124.208 46.352C125.096 46.088 126.068 45.956 127.124 45.956C128.996 45.956 130.412 46.4 131.372 47.288C131.972 47.84 132.368 48.512 132.56 49.304C132.776 50.072 132.884 51.092 132.884 52.364V62.372C132.884 62.972 132.968 63.404 133.136 63.668C133.304 63.932 133.592 64.064 134 64.064C134.288 64.064 134.552 64.004 134.792 63.884C135.056 63.74 135.332 63.548 135.62 63.308L136.016 63.92C135.392 64.4 134.852 64.748 134.396 64.964C133.964 65.156 133.412 65.252 132.74 65.252C131.588 65.252 130.784 64.964 130.328 64.388C129.872 63.812 129.644 63.032 129.644 62.048C128.924 63.248 128.096 64.088 127.16 64.568C126.224 65.024 125.168 65.252 123.992 65.252ZM125.576 63.812C127.16 63.812 128.516 62.9 129.644 61.076V54.02C129.428 54.356 129.128 54.632 128.744 54.848C128.36 55.064 127.772 55.352 126.98 55.712C126.068 56.096 125.324 56.468 124.748 56.828C124.196 57.164 123.716 57.632 123.308 58.232C122.9 58.832 122.696 59.6 122.696 60.536C122.696 61.616 122.96 62.432 123.488 62.984C124.016 63.536 124.712 63.812 125.576 63.812ZM153.849 40.232C152.985 40.28 152.349 40.376 151.941 40.52C151.557 40.664 151.293 40.94 151.149 41.348C151.005 41.756 150.933 42.416 150.933 43.328V61.184C150.933 62.096 151.005 62.756 151.149 63.164C151.293 63.572 151.557 63.848 151.941 63.992C152.349 64.112 152.985 64.172 153.849 64.172H156.477C157.965 64.172 159.093 63.968 159.861 63.56C160.653 63.128 161.229 62.444 161.589 61.508C161.949 60.572 162.213 59.216 162.381 57.44H163.209C163.137 58.184 163.101 59.168 163.101 60.392C163.101 61.76 163.185 63.296 163.353 65C161.721 64.928 158.973 64.892 155.109 64.892C150.501 64.892 147.021 64.928 144.669 65V64.28C145.533 64.232 146.157 64.136 146.541 63.992C146.949 63.848 147.225 63.572 147.369 63.164C147.513 62.756 147.585 62.096 147.585 61.184V43.328C147.585 42.416 147.513 41.756 147.369 41.348C147.225 40.94 146.949 40.664 146.541 40.52C146.157 40.376 145.533 40.28 144.669 40.232V39.512C145.677 39.584 147.213 39.62 149.277 39.62C151.197 39.62 152.721 39.584 153.849 39.512V40.232ZM180.269 60.68C179.837 62 179.021 63.14 177.821 64.1C176.645 65.036 175.217 65.504 173.537 65.504C171.833 65.504 170.357 65.12 169.109 64.352C167.861 63.56 166.901 62.468 166.229 61.076C165.581 59.66 165.257 58.028 165.257 56.18C165.257 54.092 165.593 52.28 166.265 50.744C166.937 49.208 167.885 48.032 169.109 47.216C170.333 46.376 171.761 45.956 173.393 45.956C175.553 45.956 177.209 46.616 178.361 47.936C179.537 49.232 180.125 51.212 180.125 53.876H168.857C168.785 54.548 168.749 55.316 168.749 56.18C168.749 57.764 169.001 59.144 169.505 60.32C170.033 61.496 170.717 62.408 171.557 63.056C172.421 63.68 173.321 63.992 174.257 63.992C175.409 63.992 176.429 63.716 177.317 63.164C178.205 62.612 178.949 61.688 179.549 60.392L180.269 60.68ZM173.249 46.64C172.121 46.64 171.149 47.192 170.333 48.296C169.517 49.4 169.013 51.032 168.821 53.192H176.669C176.717 51.32 176.441 49.76 175.841 48.512C175.265 47.264 174.401 46.64 173.249 46.64ZM197.76 60.68C197.328 62 196.512 63.14 195.312 64.1C194.136 65.036 192.708 65.504 191.028 65.504C189.324 65.504 187.848 65.12 186.6 64.352C185.352 63.56 184.392 62.468 183.72 61.076C183.072 59.66 182.748 58.028 182.748 56.18C182.748 54.092 183.084 52.28 183.756 50.744C184.428 49.208 185.376 48.032 186.6 47.216C187.824 46.376 189.252 45.956 190.884 45.956C193.044 45.956 194.7 46.616 195.852 47.936C197.028 49.232 197.616 51.212 197.616 53.876H186.348C186.276 54.548 186.24 55.316 186.24 56.18C186.24 57.764 186.492 59.144 186.996 60.32C187.524 61.496 188.208 62.408 189.048 63.056C189.912 63.68 190.812 63.992 191.748 63.992C192.9 63.992 193.92 63.716 194.808 63.164C195.696 62.612 196.44 61.688 197.04 60.392L197.76 60.68ZM190.74 46.64C189.612 46.64 188.64 47.192 187.824 48.296C187.008 49.4 186.504 51.032 186.312 53.192H194.16C194.208 51.32 193.932 49.76 193.332 48.512C192.756 47.264 191.892 46.64 190.74 46.64Z" fill="#0E1112"/>
<circle cx="25.5" cy="51.5" r="22.5" fill="#B7CAD5"/>
<path d="M18.6182 40.8438C18.6182 39.1283 18.2044 37.776 17.377 36.7871C16.5697 35.7982 15.2982 35.3037 13.5625 35.3037C12.7552 35.3037 11.9479 35.4349 11.1406 35.6973C10.3333 35.9395 9.66732 36.3128 9.14258 36.8174C10.293 37.2008 11.1911 37.8063 11.8369 38.6338C12.4827 39.4411 12.8057 40.4603 12.8057 41.6914C12.8057 42.5391 12.5938 43.306 12.1699 43.9922C11.7663 44.6582 11.181 45.193 10.4141 45.5967C9.64714 45.9801 8.76921 46.1719 7.78027 46.1719C6.44824 46.1719 5.37858 45.7178 4.57129 44.8096C3.78418 43.9014 3.39062 42.7611 3.39062 41.3887C3.39062 39.2493 4.54102 37.5137 6.8418 36.1816C9.36458 34.7891 12.513 34.0928 16.2871 34.0928C20.5254 34.0928 23.5426 35.0212 25.3389 36.8779C26.2067 37.7458 26.792 38.8255 27.0947 40.1172C27.3975 41.4089 27.5488 43.2152 27.5488 45.5361V62.3984C27.5488 63.4076 27.6396 64.124 27.8213 64.5479C28.0231 64.9515 28.3662 65.1533 28.8506 65.1533C29.5166 65.1533 30.2835 64.8001 31.1514 64.0938L31.7871 65.1533C30.8385 65.9404 29.8092 66.5156 28.6992 66.8789C27.5892 67.2422 26.2572 67.4238 24.7031 67.4238C22.6042 67.4238 21.0905 66.9596 20.1621 66.0312C19.2337 65.1029 18.7695 63.8919 18.7695 62.3984C17.7604 64.0736 16.4385 65.335 14.8037 66.1826C13.1689 67.0101 11.4232 67.4238 9.56641 67.4238C7.20508 67.4238 5.30794 66.8083 3.875 65.5771C2.46224 64.3258 1.75586 62.5902 1.75586 60.3701C1.75586 58.2106 2.46224 56.4245 3.875 55.0117C5.28776 53.599 7.47754 52.3477 10.4443 51.2578C10.7673 51.1367 11.8167 50.7432 13.5928 50.0771C15.3688 49.391 16.6504 48.6947 17.4375 47.9883C18.2246 47.2819 18.6182 46.5049 18.6182 45.6572V40.8438ZM18.6182 48.2002C18.3558 48.6442 17.9219 49.1084 17.3164 49.5928C16.7311 50.057 15.8835 50.6322 14.7734 51.3184C13.4616 52.2266 12.4323 53.2559 11.6855 54.4062C10.9388 55.5365 10.5654 56.9492 10.5654 58.6445C10.5654 60.2591 10.9186 61.4701 11.625 62.2773C12.3314 63.0645 13.2598 63.458 14.4102 63.458C16.0449 63.458 17.4476 62.6104 18.6182 60.915V48.2002Z" fill="white"/>
</svg>
